<svg width="45" height="25" viewBox="0 0 45 25" fill="none" xmlns="http://www.w3.org/2000/svg">
<rect width="45" height="25" fill="#FA0707" fill-opacity="0.5"/>
<path d="M13.2905 7.9C14.4691 7.9 15.3965 8.18167 16.0725 8.745C16.7485 9.30833 17.0865 10.084 17.0865 11.072C17.0865 12.06 16.7485 12.8357 16.0725 13.399C15.3965 13.9623 14.4691 14.244 13.2905 14.244H11.0415V17H9.74146V7.9H13.2905ZM13.2515 13.113C14.0748 13.113 14.7031 12.9397 15.1365 12.593C15.5698 12.2377 15.7865 11.7307 15.7865 11.072C15.7865 10.4133 15.5698 9.91067 15.1365 9.564C14.7031 9.20867 14.0748 9.031 13.2515 9.031H11.0415V13.113H13.2515ZM18.9963 7.9H22.8313C23.7933 7.9 24.647 8.09067 25.3923 8.472C26.1377 8.85333 26.714 9.39067 27.1213 10.084C27.5373 10.7687 27.7453 11.5573 27.7453 12.45C27.7453 13.3427 27.5373 14.1357 27.1213 14.829C26.714 15.5137 26.1377 16.0467 25.3923 16.428C24.647 16.8093 23.7933 17 22.8313 17H18.9963V7.9ZM22.7533 15.869C23.49 15.869 24.1357 15.726 24.6903 15.44C25.2537 15.154 25.687 14.7553 25.9903 14.244C26.2937 13.724 26.4453 13.126 26.4453 12.45C26.4453 11.774 26.2937 11.1803 25.9903 10.669C25.687 10.149 25.2537 9.746 24.6903 9.46C24.1357 9.174 23.49 9.031 22.7533 9.031H20.2963V15.869H22.7533ZM31.0366 9.031V12.203H35.5996V13.321H31.0366V17H29.7366V7.9H36.1586V9.031H31.0366Z" fill="white"/>
</svg>
