<svg width="50" height="28" viewBox="0 0 50 28" fill="none" xmlns="http://www.w3.org/2000/svg">
<rect width="50" height="28" fill="#FA0707"/>
<path d="M15.7905 9.9C16.9691 9.9 17.8965 10.1817 18.5725 10.745C19.2485 11.3083 19.5865 12.084 19.5865 13.072C19.5865 14.06 19.2485 14.8357 18.5725 15.399C17.8965 15.9623 16.9691 16.244 15.7905 16.244H13.5415V19H12.2415V9.9H15.7905ZM15.7515 15.113C16.5748 15.113 17.2031 14.9397 17.6365 14.593C18.0698 14.2377 18.2865 13.7307 18.2865 13.072C18.2865 12.4133 18.0698 11.9107 17.6365 11.564C17.2031 11.2087 16.5748 11.031 15.7515 11.031H13.5415V15.113H15.7515ZM21.4963 9.9H25.3313C26.2933 9.9 27.147 10.0907 27.8923 10.472C28.6377 10.8533 29.214 11.3907 29.6213 12.084C30.0373 12.7687 30.2453 13.5573 30.2453 14.45C30.2453 15.3427 30.0373 16.1357 29.6213 16.829C29.214 17.5137 28.6377 18.0467 27.8923 18.428C27.147 18.8093 26.2933 19 25.3313 19H21.4963V9.9ZM25.2533 17.869C25.99 17.869 26.6357 17.726 27.1903 17.44C27.7537 17.154 28.187 16.7553 28.4903 16.244C28.7937 15.724 28.9453 15.126 28.9453 14.45C28.9453 13.774 28.7937 13.1803 28.4903 12.669C28.187 12.149 27.7537 11.746 27.1903 11.46C26.6357 11.174 25.99 11.031 25.2533 11.031H22.7963V17.869H25.2533ZM33.5366 11.031V14.203H38.0996V15.321H33.5366V19H32.2366V9.9H38.6586V11.031H33.5366Z" fill="white"/>
</svg>
