<svg width="128" height="34" viewBox="0 0 128 34" fill="none" xmlns="http://www.w3.org/2000/svg">
<g filter="url(#filter0_d)">
<g filter="url(#filter1_d)">
<path d="M7.80564 6.40355C9.15149 4.07076 9.82441 2.90436 10.7661 2.05604C11.5994 1.30545 12.5811 0.738438 13.6476 0.391786C14.853 0 16.1996 0 18.8928 0H110.7C115.18 0 117.421 0 119.132 0.871948C120.637 1.63893 121.861 2.86278 122.628 4.36808C123.5 6.07937 123.5 8.31958 123.5 12.8V13.2C123.5 17.6804 123.5 19.9206 122.628 21.6319C121.861 23.1372 120.637 24.3611 119.132 25.1281C117.421 26 115.18 26 110.7 26H18.8928C16.1996 26 14.853 26 13.6476 25.6082C12.5811 25.2616 11.5994 24.6945 10.7661 23.944C9.82441 23.0956 9.15149 21.9292 7.80564 19.5964L4 13L7.80564 6.40355Z" fill="#EB5757"/>
</g>
<path d="M22.68 17.1C21.9733 17.1 21.3333 16.9467 20.76 16.64C20.1933 16.3267 19.7467 15.8967 19.42 15.35C19.1 14.8033 18.94 14.1867 18.94 13.5C18.94 12.8133 19.1033 12.1967 19.43 11.65C19.7567 11.1033 20.2033 10.6767 20.77 10.37C21.3433 10.0567 21.9833 9.9 22.69 9.9C23.2633 9.9 23.7867 10 24.26 10.2C24.7333 10.4 25.1333 10.69 25.46 11.07L24.62 11.86C24.1133 11.3133 23.49 11.04 22.75 11.04C22.27 11.04 21.84 11.1467 21.46 11.36C21.08 11.5667 20.7833 11.8567 20.57 12.23C20.3567 12.6033 20.25 13.0267 20.25 13.5C20.25 13.9733 20.3567 14.3967 20.57 14.77C20.7833 15.1433 21.08 15.4367 21.46 15.65C21.84 15.8567 22.27 15.96 22.75 15.96C23.49 15.96 24.1133 15.6833 24.62 15.13L25.46 15.93C25.1333 16.31 24.73 16.6 24.25 16.8C23.7767 17 23.2533 17.1 22.68 17.1ZM30.6291 17.1C29.9158 17.1 29.2725 16.9467 28.6991 16.64C28.1258 16.3267 27.6758 15.8967 27.3491 15.35C27.0225 14.7967 26.8591 14.18 26.8591 13.5C26.8591 12.82 27.0225 12.2067 27.3491 11.66C27.6758 11.1067 28.1258 10.6767 28.6991 10.37C29.2725 10.0567 29.9158 9.9 30.6291 9.9C31.3425 9.9 31.9858 10.0567 32.5591 10.37C33.1325 10.6767 33.5825 11.1033 33.9091 11.65C34.2358 12.1967 34.3991 12.8133 34.3991 13.5C34.3991 14.1867 34.2358 14.8033 33.9091 15.35C33.5825 15.8967 33.1325 16.3267 32.5591 16.64C31.9858 16.9467 31.3425 17.1 30.6291 17.1ZM30.6291 15.96C31.0958 15.96 31.5158 15.8567 31.8891 15.65C32.2625 15.4367 32.5558 15.1433 32.7691 14.77C32.9825 14.39 33.0891 13.9667 33.0891 13.5C33.0891 13.0333 32.9825 12.6133 32.7691 12.24C32.5558 11.86 32.2625 11.5667 31.8891 11.36C31.5158 11.1467 31.0958 11.04 30.6291 11.04C30.1625 11.04 29.7425 11.1467 29.3691 11.36C28.9958 11.5667 28.7025 11.86 28.4891 12.24C28.2758 12.6133 28.1691 13.0333 28.1691 13.5C28.1691 13.9667 28.2758 14.39 28.4891 14.77C28.7025 15.1433 28.9958 15.4367 29.3691 15.65C29.7425 15.8567 30.1625 15.96 30.6291 15.96ZM43.0071 17L42.9971 12.36L40.6971 16.2H40.1171L37.8171 12.42V17H36.5771V10H37.6471L40.4271 14.64L43.1571 10H44.2271L44.2371 17H43.0071ZM46.9279 10H48.2279V17H46.9279V10ZM57.1413 10V17H56.0713L52.2113 12.26V17H50.9213V10H51.9913L55.8513 14.74V10H57.1413ZM64.597 13.42H65.827V16.21C65.467 16.4967 65.047 16.7167 64.567 16.87C64.087 17.0233 63.5936 17.1 63.087 17.1C62.3736 17.1 61.7303 16.9467 61.157 16.64C60.5836 16.3267 60.1336 15.8967 59.807 15.35C59.4803 14.8033 59.317 14.1867 59.317 13.5C59.317 12.8133 59.4803 12.1967 59.807 11.65C60.1336 11.1033 60.5836 10.6767 61.157 10.37C61.737 10.0567 62.387 9.9 63.107 9.9C63.6936 9.9 64.227 9.99667 64.707 10.19C65.187 10.3833 65.5903 10.6667 65.917 11.04L65.097 11.84C64.5636 11.3067 63.9203 11.04 63.167 11.04C62.6736 11.04 62.2336 11.1433 61.847 11.35C61.467 11.5567 61.167 11.8467 60.947 12.22C60.7336 12.5933 60.627 13.02 60.627 13.5C60.627 13.9667 60.7336 14.3867 60.947 14.76C61.167 15.1333 61.467 15.4267 61.847 15.64C62.2336 15.8533 62.6703 15.96 63.157 15.96C63.7036 15.96 64.1836 15.84 64.597 15.6V13.42ZM74.0752 17.1C73.5352 17.1 73.0119 17.0233 72.5052 16.87C72.0052 16.7167 71.6086 16.5133 71.3152 16.26L71.7652 15.25C72.0519 15.4767 72.4019 15.6633 72.8152 15.81C73.2352 15.95 73.6552 16.02 74.0752 16.02C74.5952 16.02 74.9819 15.9367 75.2352 15.77C75.4952 15.6033 75.6252 15.3833 75.6252 15.11C75.6252 14.91 75.5519 14.7467 75.4052 14.62C75.2652 14.4867 75.0852 14.3833 74.8652 14.31C74.6452 14.2367 74.3452 14.1533 73.9652 14.06C73.4319 13.9333 72.9986 13.8067 72.6652 13.68C72.3386 13.5533 72.0552 13.3567 71.8152 13.09C71.5819 12.8167 71.4652 12.45 71.4652 11.99C71.4652 11.6033 71.5686 11.2533 71.7752 10.94C71.9886 10.62 72.3052 10.3667 72.7252 10.18C73.1519 9.99333 73.6719 9.9 74.2852 9.9C74.7119 9.9 75.1319 9.95333 75.5452 10.06C75.9586 10.1667 76.3152 10.32 76.6152 10.52L76.2052 11.53C75.8986 11.35 75.5786 11.2133 75.2452 11.12C74.9119 11.0267 74.5886 10.98 74.2752 10.98C73.7619 10.98 73.3786 11.0667 73.1252 11.24C72.8786 11.4133 72.7552 11.6433 72.7552 11.93C72.7552 12.13 72.8252 12.2933 72.9652 12.42C73.1119 12.5467 73.2952 12.6467 73.5152 12.72C73.7352 12.7933 74.0352 12.8767 74.4152 12.97C74.9352 13.09 75.3619 13.2167 75.6952 13.35C76.0286 13.4767 76.3119 13.6733 76.5452 13.94C76.7852 14.2067 76.9052 14.5667 76.9052 15.02C76.9052 15.4067 76.7986 15.7567 76.5852 16.07C76.3786 16.3833 76.0619 16.6333 75.6352 16.82C75.2086 17.0067 74.6886 17.1 74.0752 17.1ZM82.2643 17.1C81.551 17.1 80.9076 16.9467 80.3343 16.64C79.761 16.3267 79.311 15.8967 78.9843 15.35C78.6576 14.7967 78.4943 14.18 78.4943 13.5C78.4943 12.82 78.6576 12.2067 78.9843 11.66C79.311 11.1067 79.761 10.6767 80.3343 10.37C80.9076 10.0567 81.551 9.9 82.2643 9.9C82.9776 9.9 83.621 10.0567 84.1943 10.37C84.7676 10.6767 85.2176 11.1033 85.5443 11.65C85.871 12.1967 86.0343 12.8133 86.0343 13.5C86.0343 14.1867 85.871 14.8033 85.5443 15.35C85.2176 15.8967 84.7676 16.3267 84.1943 16.64C83.621 16.9467 82.9776 17.1 82.2643 17.1ZM82.2643 15.96C82.731 15.96 83.151 15.8567 83.5243 15.65C83.8976 15.4367 84.191 15.1433 84.4043 14.77C84.6176 14.39 84.7243 13.9667 84.7243 13.5C84.7243 13.0333 84.6176 12.6133 84.4043 12.24C84.191 11.86 83.8976 11.5667 83.5243 11.36C83.151 11.1467 82.731 11.04 82.2643 11.04C81.7976 11.04 81.3776 11.1467 81.0043 11.36C80.631 11.5667 80.3376 11.86 80.1243 12.24C79.911 12.6133 79.8043 13.0333 79.8043 13.5C79.8043 13.9667 79.911 14.39 80.1243 14.77C80.3376 15.1433 80.631 15.4367 81.0043 15.65C81.3776 15.8567 81.7976 15.96 82.2643 15.96ZM91.4823 17.1C90.7689 17.1 90.1256 16.9467 89.5523 16.64C88.9789 16.3267 88.5289 15.8967 88.2023 15.35C87.8756 14.7967 87.7123 14.18 87.7123 13.5C87.7123 12.82 87.8756 12.2067 88.2023 11.66C88.5289 11.1067 88.9789 10.6767 89.5523 10.37C90.1256 10.0567 90.7689 9.9 91.4823 9.9C92.1956 9.9 92.8389 10.0567 93.4123 10.37C93.9856 10.6767 94.4356 11.1033 94.7623 11.65C95.0889 12.1967 95.2523 12.8133 95.2523 13.5C95.2523 14.1867 95.0889 14.8033 94.7623 15.35C94.4356 15.8967 93.9856 16.3267 93.4123 16.64C92.8389 16.9467 92.1956 17.1 91.4823 17.1ZM91.4823 15.96C91.9489 15.96 92.3689 15.8567 92.7423 15.65C93.1156 15.4367 93.4089 15.1433 93.6223 14.77C93.8356 14.39 93.9423 13.9667 93.9423 13.5C93.9423 13.0333 93.8356 12.6133 93.6223 12.24C93.4089 11.86 93.1156 11.5667 92.7423 11.36C92.3689 11.1467 91.9489 11.04 91.4823 11.04C91.0156 11.04 90.5956 11.1467 90.2223 11.36C89.8489 11.5667 89.5556 11.86 89.3423 12.24C89.1289 12.6133 89.0223 13.0333 89.0223 13.5C89.0223 13.9667 89.1289 14.39 89.3423 14.77C89.5556 15.1433 89.8489 15.4367 90.2223 15.65C90.5956 15.8567 91.0156 15.96 91.4823 15.96ZM103.65 10V17H102.58L98.7202 12.26V17H97.4302V10H98.5002L102.36 14.74V10H103.65ZM106.606 17.07C106.379 17.07 106.186 16.9933 106.026 16.84C105.866 16.68 105.786 16.48 105.786 16.24C105.786 15.9933 105.863 15.7933 106.016 15.64C106.176 15.4867 106.373 15.41 106.606 15.41C106.839 15.41 107.033 15.4867 107.186 15.64C107.346 15.7933 107.426 15.9933 107.426 16.24C107.426 16.48 107.346 16.68 107.186 16.84C107.026 16.9933 106.833 17.07 106.606 17.07ZM109.847 17.07C109.621 17.07 109.427 16.9933 109.267 16.84C109.107 16.68 109.027 16.48 109.027 16.24C109.027 15.9933 109.104 15.7933 109.257 15.64C109.417 15.4867 109.614 15.41 109.847 15.41C110.081 15.41 110.274 15.4867 110.427 15.64C110.587 15.7933 110.667 15.9933 110.667 16.24C110.667 16.48 110.587 16.68 110.427 16.84C110.267 16.9933 110.074 17.07 109.847 17.07ZM113.089 17.07C112.862 17.07 112.669 16.9933 112.509 16.84C112.349 16.68 112.269 16.48 112.269 16.24C112.269 15.9933 112.345 15.7933 112.499 15.64C112.659 15.4867 112.855 15.41 113.089 15.41C113.322 15.41 113.515 15.4867 113.669 15.64C113.829 15.7933 113.909 15.9933 113.909 16.24C113.909 16.48 113.829 16.68 113.669 16.84C113.509 16.9933 113.315 17.07 113.089 17.07Z" fill="white"/>
</g>
<defs>
<filter id="filter0_d" x="0" y="0" width="127.5" height="34" filterUnits="userSpaceOnUse" color-interpolation-filters="sRGB">
<feFlood flood-opacity="0" result="BackgroundImageFix"/>
<feColorMatrix in="SourceAlpha" type="matrix" values="0 0 0 0 0 0 0 0 0 0 0 0 0 0 0 0 0 0 127 0"/>
<feOffset dy="4"/>
<feGaussianBlur stdDeviation="2"/>
<feColorMatrix type="matrix" values="0 0 0 0 0 0 0 0 0 0 0 0 0 0 0 0 0 0 0.25 0"/>
<feBlend mode="normal" in2="BackgroundImageFix" result="effect1_dropShadow"/>
<feBlend mode="normal" in="SourceGraphic" in2="effect1_dropShadow" result="shape"/>
</filter>
<filter id="filter1_d" x="0" y="0" width="127.5" height="34" filterUnits="userSpaceOnUse" color-interpolation-filters="sRGB">
<feFlood flood-opacity="0" result="BackgroundImageFix"/>
<feColorMatrix in="SourceAlpha" type="matrix" values="0 0 0 0 0 0 0 0 0 0 0 0 0 0 0 0 0 0 127 0"/>
<feOffset dy="4"/>
<feGaussianBlur stdDeviation="2"/>
<feColorMatrix type="matrix" values="0 0 0 0 0.921569 0 0 0 0 0.341176 0 0 0 0 0.341176 0 0 0 0.2 0"/>
<feBlend mode="normal" in2="BackgroundImageFix" result="effect1_dropShadow"/>
<feBlend mode="normal" in="SourceGraphic" in2="effect1_dropShadow" result="shape"/>
</filter>
</defs>
</svg>
