<svg width="12" height="12" viewBox="0 0 12 12" fill="none" xmlns="http://www.w3.org/2000/svg">
<path d="M10.2427 7.64885C9.58915 7.0045 8.81131 6.5275 7.96263 6.23874C8.87159 5.62146 9.46875 4.58838 9.46875 3.42024C9.46875 1.53432 7.91266 0 6 0C4.08734 0 2.53125 1.53432 2.53125 3.42024C2.53125 4.58838 3.12841 5.62146 4.03739 6.23874C3.18872 6.5275 2.41088 7.0045 1.75737 7.64885C0.624117 8.76627 0 10.2519 0 11.8322H0.9375C0.9375 9.07973 3.20852 6.84047 6 6.84047C8.79148 6.84047 11.0625 9.07973 11.0625 11.8322H12C12 10.2519 11.3759 8.76627 10.2427 7.64885ZM6 5.91608C4.60427 5.91608 3.46875 4.79646 3.46875 3.42024C3.46875 2.04401 4.60427 0.924388 6 0.924388C7.39573 0.924388 8.53125 2.04401 8.53125 3.42024C8.53125 4.79646 7.39573 5.91608 6 5.91608Z" fill="white"/>
</svg>
