<svg width="1442" height="381" viewBox="0 0 1442 381" fill="none" xmlns="http://www.w3.org/2000/svg">
<g opacity="0.3">
<path d="M649 170L685.818 97L734.663 162L753.323 117H791.741L817.535 101.5L869.674 135H914.677L951.449 206L999.196 88L1047.49 61.5L1111.16 101.5L1188.54 117L1206.65 88L1226.96 159.5L1254.4 51.5H1301.05L1388.86 1H1441" stroke="#828282" stroke-linecap="round"/>
<path d="M592 170L649 170" stroke="#828282" stroke-linecap="round"/>
<path d="M649 245L685.818 173L734.663 238L753.323 193H791.741L817.535 177.5L869.674 211H914.677L951.449 282L999.196 164L1047.49 137.5L1111.16 177.5L1188.54 193L1206.65 164L1226.96 235.5L1254.4 127.5H1301.05L1388.86 77H1441" stroke="#828282" stroke-linecap="round"/>
<path d="M369 245L649 245" stroke="#828282" stroke-linecap="round"/>
<path d="M649 295L685.818 222L734.663 287L753.323 242H791.741L817.535 226.5L869.674 260H914.677L951.449 331L999.196 213L1047.49 186.5L1111.16 226.5L1188.54 242L1206.65 213L1226.96 284.5L1254.4 176.5H1301.05L1388.86 126H1441" stroke="#828282" stroke-linecap="round"/>
<path d="M405 295L649 295" stroke="#828282" stroke-linecap="round"/>
<path d="M649 343L685.818 270L734.663 335L753.323 290H791.741L817.535 274.5L869.674 308H914.677L951.449 379L999.196 261L1047.49 234.5L1111.16 274.5L1188.54 290L1206.65 261L1226.96 332.5L1254.4 224.5H1301.05L1388.86 174H1441" stroke="#828282" stroke-linecap="round"/>
<path d="M560 343L649 343" stroke="#828282" stroke-linecap="round"/>
<line x1="0.5" y1="168.5" x2="130.5" y2="168.5" stroke="#828282" stroke-linecap="round"/>
<line x1="0.5" y1="244.5" x2="130.5" y2="244.5" stroke="#828282" stroke-linecap="round"/>
<line x1="0.5" y1="293.5" x2="130.5" y2="293.5" stroke="#828282" stroke-linecap="round"/>
<line x1="0.5" y1="341.5" x2="130.5" y2="341.5" stroke="#828282" stroke-linecap="round"/>
</g>
</svg>
